<?xml version="1.0" encoding="utf-8"?>
<!-- Generator: Adobe Illustrator 23.0.3, SVG Export Plug-In . SVG Version: 6.00 Build 0)  -->
<svg version="1.1" id="Layer_1" xmlns="http://www.w3.org/2000/svg" xmlns:xlink="http://www.w3.org/1999/xlink" x="0px" y="0px"
	 viewBox="0 0 24 24" style="enable-background:new 0 0 24 24;" xml:space="preserve">
<style type="text/css">
	.st0{fill:url(#SVGID_1_);}
	.st1{fill:url(#SVGID_2_);}
	.st2{fill:url(#SVGID_3_);}
	.st3{fill:url(#SVGID_4_);}
	.st4{fill:url(#SVGID_5_);}
	.st5{fill:url(#SVGID_6_);}
	.st6{fill:url(#SVGID_7_);}
	.st7{fill:url(#SVGID_8_);}
	.st8{fill:url(#SVGID_9_);}
	.st9{fill:url(#SVGID_10_);}
	.st10{fill:url(#SVGID_11_);}
	.st11{fill:url(#SVGID_12_);}
	.st12{fill:url(#SVGID_13_);}
	.st13{fill:url(#SVGID_14_);}
	.st14{fill:url(#SVGID_15_);}
	.st15{fill:url(#SVGID_16_);}
	.st16{fill:url(#SVGID_17_);}
	.st17{fill:url(#SVGID_18_);}
	.st18{fill:url(#SVGID_19_);}
	.st19{fill:url(#SVGID_20_);}
</style>
<g>
	<g>
		<linearGradient id="SVGID_1_" gradientUnits="userSpaceOnUse" x1="1.1971" y1="12.0994" x2="21.2512" y2="12.0994">
			<stop  offset="0" style="stop-color:#1245C6"/>
			<stop  offset="1" style="stop-color:#9909B7"/>
		</linearGradient>
		<path class="st0" d="M20.1,3.2c-0.7-0.7-1.6-1.1-2.7-1.1H5c-1,0-1.9,0.4-2.7,1.1C1.6,3.9,1.2,4.8,1.2,5.8v12.5
			c0,1,0.4,1.9,1.1,2.7C3,21.8,3.9,22.1,5,22.1h12.5c1,0,1.9-0.4,2.7-1.1c0.7-0.7,1.1-1.6,1.1-2.7V5.8C21.3,4.8,20.9,3.9,20.1,3.2z
			 M16.5,9.8c0,0.1,0,0.2,0,0.4c0,0.7-0.1,1.5-0.3,2.2c-0.2,0.7-0.5,1.4-1,2.1c-0.4,0.7-1,1.3-1.6,1.8c-0.6,0.5-1.3,0.9-2.2,1.2
			c-0.9,0.3-1.8,0.5-2.7,0.5c-1.5,0-2.9-0.4-4.2-1.2c0.2,0,0.4,0,0.7,0c1.3,0,2.4-0.4,3.4-1.2C8,15.6,7.5,15.4,7,15
			c-0.5-0.4-0.8-0.8-1-1.4c0.2,0,0.4,0.1,0.5,0.1c0.2,0,0.4,0,0.7-0.1c-0.6-0.1-1.2-0.4-1.6-0.9C5.2,12.2,5,11.6,5,10.9v0
			c0.5,0.2,0.9,0.3,1.3,0.3C5.5,10.7,5.1,10,5.1,9c0-0.5,0.1-0.9,0.4-1.4C6.1,8.4,7,9.1,8,9.6c1,0.5,2,0.8,3.2,0.8
			c0-0.2-0.1-0.4-0.1-0.6c0-0.8,0.3-1.4,0.8-1.9c0.5-0.5,1.2-0.8,1.9-0.8c0.8,0,1.5,0.3,2,0.9c0.6-0.1,1.2-0.3,1.7-0.7
			c-0.2,0.7-0.6,1.2-1.2,1.5c0.6-0.1,1.1-0.2,1.6-0.4C17.5,8.9,17.1,9.4,16.5,9.8z"/>
	</g>
</g>
</svg>
